<?xml version="1.0" encoding="utf-8"?>
<!-- Generator: Adobe Illustrator 24.2.1, SVG Export Plug-In . SVG Version: 6.00 Build 0)  -->
<svg version="1.1" id="Layer_1" xmlns="http://www.w3.org/2000/svg" xmlns:xlink="http://www.w3.org/1999/xlink" x="0px" y="0px"
	 viewBox="0 0 192 192" style="enable-background:new 0 0 192 192;" xml:space="preserve">
<style type="text/css">
	.st0{fill:#C7FF00;stroke:#000000;stroke-width:2;stroke-miterlimit:10;}
</style>
<g>
	<path class="st0" d="M82.9,183.6l-25-15.9c-0.6-0.4-1.1-1.1-1.1-1.9v-29.4c0-0.7,0.4-1.4,1-1.8l5.1-3.6c0.6-0.5,1-1.1,1-1.8
		l-0.4-67.3l0.4-40.3c0-0.7,0.4-1.4,1.1-1.9l18-11.3c1.4-1,3.5,0.1,3.5,1.9v171.5C86.4,183.5,84.3,184.6,82.9,183.6z"/>
	<path class="st0" d="M110.6,8.4l25,15.9c0.6,0.4,1.1,1.1,1.1,1.9v29.4c0,0.7-0.4,1.4-1,1.8l-5.1,3.6c-0.6,0.5-1,1.1-1,1.8l0.4,67.3
		l-0.4,40.3c0,0.7-0.4,1.4-1.1,1.9l-18,11.3c-1.4,1-3.5-0.1-3.5-1.9V10.3C107.1,8.5,109.1,7.4,110.6,8.4z"/>
	<path class="st0" d="M37.9,155.4l-18-11.5c-0.6-0.4-1.1-1.1-1.1-1.9V50.4c0-0.7,0.4-1.4,1.1-1.9l24.7-15.7c1.4-1,3.5,0.1,3.5,1.9
		v25.6c0,0.7-0.4,1.4-1,1.8l-4.9,3.6c-0.6,0.5-1,1.1-1,1.8v86.1C41.4,155.3,39.5,156.4,37.9,155.4z"/>
	<path class="st0" d="M154.1,36.4l18,11.5c0.6,0.4,1.1,1.1,1.1,1.9v91.7c0,0.7-0.4,1.4-1.1,1.9l-24.7,15.7c-1.4,1-3.5-0.1-3.5-1.9
		v-25.6c0-0.7,0.4-1.4,1-1.8l4.9-3.6c0.6-0.5,1-1.1,1-1.8V38.3C150.6,36.6,152.5,35.5,154.1,36.4z"/>
</g>
</svg>
