<?xml version="1.0" encoding="utf-8"?>
<!-- Generator: Adobe Illustrator 24.2.1, SVG Export Plug-In . SVG Version: 6.00 Build 0)  -->
<svg version="1.1" id="Layer_1" xmlns="http://www.w3.org/2000/svg" xmlns:xlink="http://www.w3.org/1999/xlink" x="0px" y="0px"
	 viewBox="0 0 116.41 76.14" style="enable-background:new 0 0 116.41 76.14;" xml:space="preserve">
<style type="text/css">
	.st0{opacity:0.5;}
	.st1{fill:#9BCB3C;}
	.st2{fill:#F7C69F;}
	.st3{fill:#1C1D1D;}
</style>
<g>
	<g class="st0">
		<path class="st1" d="M52.52,75.97L41.74,69.1c-0.28-0.18-0.45-0.49-0.45-0.82l-0.01-12.75c0-0.31,0.15-0.61,0.41-0.79l2.18-1.55
			c0.26-0.18,0.41-0.48,0.41-0.8l-0.14-29.11l0.15-17.41c0-0.33,0.17-0.64,0.45-0.81l7.77-4.91c0.65-0.41,1.49,0.06,1.49,0.82v74.17
			C54.01,75.91,53.16,76.38,52.52,75.97z"/>
		<path class="st1" d="M33.09,63.76l-7.77-4.95c-0.28-0.18-0.45-0.49-0.45-0.82V18.34c0-0.33,0.17-0.64,0.45-0.82l10.68-6.76
			c0.65-0.41,1.49,0.06,1.49,0.82v11.03c0,0.31-0.15,0.6-0.4,0.78l-2.12,1.56c-0.25,0.18-0.4,0.47-0.4,0.78v37.22
			C34.58,63.71,33.74,64.18,33.09,63.76z"/>
	</g>
	<g class="st0">
		<path class="st2" d="M64.52,0.16l10.77,6.86c0.28,0.18,0.45,0.49,0.45,0.82l0.01,12.75c0,0.31-0.15,0.61-0.41,0.79l-2.18,1.55
			c-0.26,0.18-0.41,0.48-0.41,0.8l0.14,29.11l-0.15,17.41c0,0.33-0.17,0.64-0.45,0.81l-7.78,4.91c-0.65,0.41-1.49-0.06-1.49-0.82
			V0.98C63.02,0.22,63.87-0.25,64.52,0.16z"/>
		<path class="st2" d="M83.32,12.29l7.77,4.95c0.28,0.18,0.45,0.49,0.45,0.82v39.66c0,0.33-0.17,0.64-0.45,0.82L80.4,65.3
			c-0.65,0.41-1.49-0.06-1.49-0.82V53.45c0-0.31,0.15-0.6,0.4-0.78l2.12-1.56c0.25-0.18,0.4-0.47,0.4-0.78V13.11
			C81.83,12.34,82.67,11.88,83.32,12.29z"/>
	</g>
	<g>
		<path class="st3" d="M0,23.61c0-0.08,0.05-0.15,0.12-0.18l1.3-0.56l1.15-0.49c0.13-0.06,0.28,0.04,0.28,0.18v1.41
			c0.38-1.14,0.95-1.71,1.71-1.71H5.7c1.14,0,1.9,0.28,2.28,0.85c0.38,0.57,0.57,1.23,0.57,1.99v13.41c0,0.07-0.03,0.13-0.09,0.17
			l-2.45,1.6c-0.13,0.09-0.31-0.01-0.31-0.17V25.47c0-0.16-0.17-0.25-0.3-0.17l-2.45,1.5c-0.06,0.04-0.1,0.1-0.1,0.17v11.56
			c0,0.07-0.03,0.13-0.09,0.17l-2.45,1.6C0.18,40.38,0,40.28,0,40.12V23.61z"/>
		<path class="st3" d="M14.44,33.6c-0.07,0.03-0.11,0.1-0.11,0.18v4.74c0,0.07-0.03,0.13-0.09,0.17l-2.45,1.6
			c-0.13,0.09-0.31-0.01-0.31-0.17V23.61c0-0.08,0.05-0.15,0.12-0.18l2.45-1.04c0.13-0.06,0.28,0.04,0.28,0.18v7.35
			c0,0.15,0.16,0.25,0.29,0.18l2.45-1.22c0.07-0.03,0.11-0.1,0.11-0.18v-5.08c0-0.08,0.05-0.15,0.12-0.18l2.45-1.04
			c0.13-0.06,0.28,0.04,0.28,0.18v15.96c0,0.07-0.03,0.13-0.09,0.17l-2.45,1.6c-0.13,0.09-0.31-0.01-0.31-0.17v-7.57
			c0-0.15-0.16-0.25-0.29-0.18L14.44,33.6z"/>
		<path class="st3" d="M25.91,26.8c-0.06,0.04-0.1,0.1-0.1,0.17v2.95c0,0.15,0.16,0.25,0.29,0.18l2.45-1.22
			c0.07-0.03,0.11-0.1,0.11-0.18v-3.22c0-0.16-0.17-0.25-0.3-0.17L25.91,26.8z M22.97,25.11c0-1.14,0.19-1.9,0.57-2.28
			c0.38-0.38,1.14-0.57,2.28-0.57h2.85c1.14,0,1.9,0.19,2.28,0.57c0.38,0.38,0.57,1.14,0.57,2.28v13.41c0,0.07-0.03,0.13-0.09,0.17
			l-2.45,1.6c-0.13,0.09-0.31-0.01-0.31-0.17v-7.57c0-0.15-0.16-0.25-0.29-0.18l-2.45,1.22c-0.07,0.03-0.11,0.1-0.11,0.18v4.74
			c0,0.07-0.03,0.13-0.09,0.17l-2.45,1.6c-0.13,0.09-0.31-0.01-0.31-0.17V25.11z"/>
		<path class="st3" d="M34.45,23.56l2.85-1.3v1.71c0.38-1.14,0.95-1.71,1.71-1.71h1.14c1.14,0,1.9,0.28,2.28,0.85
			c0.38,0.57,0.57,1.23,0.57,1.99v13.41c0,0.07-0.03,0.13-0.09,0.17l-2.45,1.6c-0.13,0.09-0.31-0.01-0.31-0.17V25.47
			c0-0.16-0.17-0.25-0.3-0.17l-2.45,1.5c-0.06,0.04-0.1,0.1-0.1,0.17v11.56c0,0.07-0.03,0.13-0.09,0.17l-2.45,1.6
			c-0.13,0.09-0.31-0.01-0.31-0.17V23.56z"/>
		<path class="st3" d="M52.82,23.69c0-0.08,0.05-0.15,0.12-0.18l2.45-1.12c0.13-0.06,0.28,0.04,0.28,0.18v1.4
			c0.38-1.14,0.95-1.71,1.71-1.71h1.14c1.14,0,1.9,0.28,2.28,0.85c0.38,0.57,0.57,1.23,0.57,1.99v13.41c0,0.07-0.03,0.13-0.09,0.17
			l-2.45,1.6c-0.13,0.09-0.31-0.01-0.31-0.17V25.47c0-0.16-0.17-0.25-0.3-0.17l-2.45,1.5c-0.06,0.04-0.1,0.1-0.1,0.17v11.56
			c0,0.07-0.03,0.13-0.09,0.17l-2.45,1.6c-0.13,0.09-0.31-0.01-0.31-0.17V23.69z"/>
		<path class="st3" d="M72.84,37.65c0,1.14-0.19,1.9-0.57,2.28c-0.38,0.38-1.14,0.57-2.28,0.57h-2.85c-1.14,0-1.9-0.19-2.28-0.57
			c-0.38-0.38-0.57-1.14-0.57-2.27V25.11c0-1.13,0.19-1.89,0.57-2.27c0.39-0.39,1.15-0.58,2.28-0.59L70,22.27
			c1.13,0,1.89,0.19,2.27,0.56c0.39,0.37,0.58,1.14,0.58,2.3v1c0,0.08-0.04,0.15-0.11,0.18l-2.45,1.22C70.15,27.6,70,27.5,70,27.35
			v-2.24h-2.65c-0.11,0-0.2,0.09-0.2,0.2v12.14c0,0.11,0.09,0.2,0.2,0.2h2.45c0.11,0,0.2-0.09,0.2-0.2V33.7
			c0-0.15-0.16-0.25-0.29-0.18l-1.13,0.57c-0.13,0.07-0.29-0.03-0.29-0.18v-2.97c0-0.08,0.04-0.15,0.11-0.18l4.16-2.08
			c0.13-0.07,0.29,0.03,0.29,0.18V37.65z"/>
		<path class="st3" d="M84.05,22.39c0.13-0.06,0.28,0.04,0.28,0.18v15.07c0,1.14-0.19,1.9-0.57,2.28c-0.38,0.38-1.14,0.57-2.28,0.57
			h-2.85c-1.14,0-1.9-0.19-2.28-0.57c-0.38-0.38-0.57-1.14-0.57-2.27V23.67c0-0.08,0.05-0.15,0.12-0.18l2.45-1.09
			c0.13-0.06,0.28,0.04,0.28,0.18v15.08h2.85V23.67c0-0.08,0.05-0.15,0.12-0.18L84.05,22.39z"/>
		<path class="st3" d="M92.96,23.67c0-0.08,0.05-0.15,0.12-0.18l2.45-1.09c0.13-0.06,0.28,0.04,0.28,0.18v15.06
			c0,1.13-0.19,1.89-0.58,2.28c-0.38,0.38-1.14,0.57-2.27,0.58l-2.85-0.01c-1.13,0-1.89-0.19-2.28-0.56
			c-0.38-0.37-0.57-1.14-0.57-2.3v-1c0-0.08,0.04-0.15,0.11-0.18l2.45-1.22c0.13-0.07,0.29,0.03,0.29,0.18v2.04
			c0,0.11,0.09,0.2,0.2,0.2h2.45c0.11,0,0.2-0.09,0.2-0.2v-6.12c0-0.15-0.15-0.24-0.28-0.18l-5.13,2.39
			c-0.13,0.06-0.29-0.03-0.29-0.18v-9.68c0-0.08,0.05-0.15,0.12-0.18l2.45-1.09c0.13-0.06,0.28,0.04,0.28,0.18v6.22
			c0,0.14,0.14,0.24,0.27,0.19l2.45-0.97c0.08-0.03,0.13-0.1,0.13-0.19V23.67z"/>
		<path class="st3" d="M98.75,22.47c0-0.11,0.09-0.2,0.2-0.2h7.01c0.11,0,0.2,0.09,0.2,0.2v2.45c0,0.11-0.09,0.2-0.2,0.2h-4.16
			c-0.11,0-0.2,0.09-0.2,0.2v4.59c0,0.15,0.16,0.25,0.29,0.18l3.98-1.98c0.13-0.07,0.29,0.03,0.29,0.18v2.96
			c0,0.08-0.04,0.15-0.11,0.18l-4.34,2.17c-0.07,0.03-0.11,0.1-0.11,0.18v3.68c0,0.11,0.09,0.2,0.2,0.2h4.16
			c0.11,0,0.2,0.09,0.2,0.2l-0.01,2.45c0,0.11-0.09,0.2-0.2,0.2h-6.99c-0.11,0-0.2-0.09-0.2-0.2V22.47z"/>
		<path class="st3" d="M107.86,23.67c0-0.08,0.05-0.15,0.12-0.18l2.45-1.09c0.13-0.06,0.28,0.04,0.28,0.18v1.4
			c0.38-1.14,0.95-1.71,1.71-1.71h1.14c1.14,0,1.9,0.28,2.28,0.85c0.38,0.57,0.57,1.23,0.57,1.99v13.4c0,0.07-0.03,0.13-0.09,0.17
			l-2.45,1.61c-0.13,0.09-0.31-0.01-0.31-0.17V25.48c0-0.16-0.17-0.25-0.31-0.17l-2.45,1.58c-0.06,0.04-0.09,0.1-0.09,0.17v11.46
			c0,0.07-0.03,0.13-0.09,0.17l-2.45,1.61c-0.13,0.09-0.31-0.01-0.31-0.17V23.67z"/>
		<path class="st3" d="M0.9,53.75v-6.56h1l1.26,3.5c0.08,0.23,0.16,0.46,0.23,0.69c0.08,0.23,0.16,0.45,0.24,0.68h0.04
			c0.08-0.23,0.15-0.45,0.22-0.68c0.07-0.23,0.15-0.46,0.23-0.69l1.24-3.5h1.01v6.56H5.59v-3.61c0-0.29,0.01-0.62,0.04-0.97
			c0.03-0.36,0.05-0.68,0.07-0.97H5.66l-0.52,1.49l-1.24,3.4H3.35l-1.24-3.4L1.59,48.2H1.55c0.02,0.29,0.04,0.61,0.06,0.97
			c0.03,0.35,0.04,0.68,0.04,0.97v3.61H0.9z"/>
		<path class="st3" d="M11.7,50.08l-0.31,1h1.97l-0.31-1c-0.12-0.37-0.23-0.73-0.34-1.09c-0.11-0.37-0.21-0.74-0.32-1.12h-0.04
			c-0.1,0.38-0.2,0.75-0.31,1.12C11.93,49.35,11.82,49.72,11.7,50.08z M9.7,53.75l2.22-6.56h0.94l2.22,6.56h-0.89l-0.62-2h-2.39
			l-0.63,2H9.7z"/>
		<path class="st3" d="M18.4,53.75v-6.56h0.83v3.29h0.03l2.73-3.29h0.94l-2.05,2.5l2.37,4.06h-0.93l-1.96-3.41l-1.13,1.33v2.08H18.4
			z"/>
		<path class="st3" d="M26.6,53.75v-6.56h3.78v0.7h-2.95v2.06h2.49v0.71h-2.49v2.38h3.05v0.71H26.6z"/>
		<path class="st3" d="M43.07,53.75v-6.56h0.83v6.56H43.07z"/>
		<path class="st3" d="M49.46,53.75v-5.86h-1.98v-0.7h4.8v0.7H50.3v5.86H49.46z"/>
		<path class="st3" d="M64.67,53.75v-6.56h1.87c0.49,0,0.92,0.06,1.29,0.18c0.37,0.12,0.65,0.32,0.86,0.61
			c0.21,0.28,0.31,0.66,0.31,1.14c0,0.69-0.22,1.2-0.67,1.53c-0.45,0.33-1.03,0.5-1.75,0.5H65.5v2.6H64.67z M65.5,50.47h0.98
			c0.57,0,1-0.11,1.27-0.32c0.28-0.22,0.42-0.56,0.42-1.03c0-0.47-0.15-0.8-0.44-0.98c-0.29-0.19-0.72-0.28-1.29-0.28H65.5V50.47z"
			/>
		<path class="st3" d="M72.73,53.75v-6.56h3.78v0.7h-2.95v2.06h2.49v0.71h-2.49v2.38h3.05v0.71H72.73z"/>
		<path class="st3" d="M80.4,53.75v-6.56h2.05c0.45,0,0.84,0.06,1.19,0.18c0.35,0.11,0.62,0.31,0.81,0.58
			c0.2,0.27,0.3,0.63,0.3,1.08c0,0.51-0.13,0.92-0.4,1.23c-0.27,0.31-0.63,0.52-1.08,0.63l1.67,2.86H84l-1.58-2.77h-1.19v2.77H80.4z
			 M81.23,50.3h1.1c0.51,0,0.91-0.1,1.18-0.31c0.27-0.21,0.41-0.53,0.41-0.96c0-0.43-0.14-0.74-0.41-0.91
			c-0.27-0.17-0.67-0.26-1.18-0.26h-1.1V50.3z"/>
		<path class="st3" d="M88.5,53.75v-6.56h3.78v0.7h-2.95v2.22h2.5v0.7h-2.5v2.94H88.5z"/>
		<path class="st3" d="M95.84,53.75v-6.56h3.78v0.7h-2.95v2.06h2.49v0.71h-2.49v2.38h3.05v0.71H95.84z"/>
		<path class="st3" d="M105.99,53.87c-0.55,0-1.04-0.13-1.47-0.4c-0.43-0.27-0.77-0.66-1.02-1.17c-0.25-0.51-0.37-1.12-0.37-1.83
			c0-0.71,0.13-1.31,0.38-1.82c0.25-0.51,0.6-0.9,1.04-1.17c0.44-0.27,0.94-0.41,1.49-0.41c0.4,0,0.75,0.08,1.06,0.25
			c0.31,0.16,0.55,0.35,0.74,0.56l-0.45,0.54c-0.17-0.19-0.37-0.34-0.59-0.45c-0.22-0.11-0.47-0.17-0.75-0.17
			c-0.41,0-0.78,0.11-1.09,0.33c-0.31,0.21-0.55,0.52-0.72,0.91c-0.17,0.39-0.25,0.86-0.25,1.41c0,0.55,0.08,1.02,0.25,1.43
			c0.17,0.4,0.4,0.71,0.7,0.93c0.31,0.22,0.67,0.33,1.08,0.33c0.31,0,0.59-0.07,0.84-0.2c0.25-0.13,0.47-0.31,0.68-0.54l0.46,0.52
			c-0.26,0.3-0.55,0.53-0.88,0.7C106.79,53.79,106.42,53.87,105.99,53.87z"/>
		<path class="st3" d="M112.81,53.75v-5.86h-1.98v-0.7h4.8v0.7h-1.98v5.86H112.81z"/>
	</g>
</g>
</svg>
