<?xml version="1.0" encoding="utf-8"?>
<!-- Generator: Adobe Illustrator 24.2.1, SVG Export Plug-In . SVG Version: 6.00 Build 0)  -->
<svg version="1.1" id="Layer_1" xmlns="http://www.w3.org/2000/svg" xmlns:xlink="http://www.w3.org/1999/xlink" x="0px" y="0px" width="auto" height="1em"
	 viewBox="0 0 479.07 256" style="enable-background:new 0 0 479.07 256;" xml:space="preserve">
<style type="text/css">
	.st0{opacity:0.5;}
	.st1{fill:#9BCB3D;}
	.st2{fill:#F7C7A0;}
	.st3{fill:#1C1D1D;}
</style>
<g>
	<g>
		<g class="st0">
			<path class="st1" d="M220.42,255.49l-36.25-23.1c-0.94-0.61-1.51-1.65-1.51-2.76l-0.03-42.88c0-1.04,0.5-2.05,1.38-2.66
				l7.33-5.21c0.87-0.61,1.38-1.61,1.38-2.69l-0.47-97.9l0.5-58.55c0-1.11,0.57-2.15,1.51-2.72l26.13-16.51
				c2.19-1.38,5.01,0.2,5.01,2.76V252.7C225.43,255.29,222.57,256.87,220.42,255.49z"/>
			<path class="st1" d="M155.07,214.43l-26.13-16.65c-0.94-0.61-1.51-1.65-1.51-2.76V61.68c0-1.11,0.57-2.15,1.51-2.76l35.92-22.73
				c2.19-1.38,5.01,0.2,5.01,2.76v37.09c0,1.04-0.5,2.02-1.35,2.62l-7.13,5.25c-0.84,0.61-1.35,1.58-1.35,2.62V211.7
				C160.09,214.26,157.26,215.84,155.07,214.43z"/>
		</g>
		<g class="st0">
			<path class="st2" d="M260.77,0.54l36.22,23.07c0.94,0.61,1.51,1.65,1.51,2.76l0.03,42.88c0,1.04-0.5,2.05-1.38,2.66l-7.33,5.21
				c-0.87,0.61-1.38,1.61-1.38,2.69l0.47,97.9l-0.5,58.55c0,1.11-0.57,2.15-1.51,2.72l-26.16,16.51c-2.19,1.38-5.01-0.2-5.01-2.76
				V3.3C255.73,0.75,258.59-0.83,260.77,0.54z"/>
			<path class="st2" d="M324,41.34l26.13,16.65c0.94,0.61,1.51,1.65,1.51,2.76v133.37c0,1.11-0.57,2.15-1.51,2.76l-35.95,22.73
				c-2.19,1.38-5.01-0.2-5.01-2.76v-37.09c0-1.04,0.5-2.02,1.35-2.62l7.13-5.25c0.84-0.61,1.35-1.58,1.35-2.62V44.09
				C318.99,41.5,321.81,39.96,324,41.34z"/>
		</g>
	</g>
	<g>
		<path class="st3" d="M0,96.02c0-0.33,0.21-0.62,0.49-0.74l5.35-2.3l4.73-2.02c0.53-0.25,1.15,0.16,1.15,0.74v5.8
			c1.56-4.69,3.91-7.04,7.04-7.04h4.69c4.69,0,7.82,1.15,9.38,3.5s2.35,5.06,2.35,8.19v55.19c0,0.29-0.12,0.54-0.37,0.7l-10.08,6.58
			c-0.53,0.37-1.28-0.04-1.28-0.7v-60.25c0-0.66-0.7-1.03-1.23-0.7l-10.08,6.17c-0.25,0.16-0.41,0.41-0.41,0.7v47.57
			c0,0.29-0.12,0.54-0.37,0.7l-10.08,6.58C0.74,165.04,0,164.63,0,163.97V96.02z"/>
		<path class="st3" d="M59.43,137.14c-0.29,0.12-0.45,0.41-0.45,0.74v19.51c0,0.29-0.12,0.54-0.37,0.7l-10.08,6.58
			c-0.53,0.37-1.28-0.04-1.28-0.7V96.02c0-0.33,0.21-0.62,0.49-0.74L57.82,91c0.53-0.25,1.15,0.16,1.15,0.74v30.25
			c0,0.62,0.66,1.03,1.19,0.74l10.08-5.02c0.29-0.12,0.45-0.41,0.45-0.74V96.06c0-0.33,0.21-0.62,0.49-0.74l10.08-4.28
			c0.53-0.25,1.15,0.16,1.15,0.74v65.68c0,0.29-0.12,0.54-0.37,0.7l-10.08,6.58c-0.53,0.37-1.28-0.04-1.28-0.7V132.9
			c0-0.62-0.66-1.03-1.19-0.74L59.43,137.14z"/>
		<path class="st3" d="M106.63,109.15c-0.25,0.16-0.41,0.41-0.41,0.7v12.14c0,0.62,0.66,1.03,1.19,0.74l10.08-5.02
			c0.29-0.12,0.45-0.41,0.45-0.74v-13.25c0-0.66-0.7-1.03-1.23-0.7L106.63,109.15z M94.53,102.2c0-4.69,0.78-7.82,2.35-9.38
			c1.56-1.56,4.69-2.35,9.38-2.35h11.73c4.69,0,7.82,0.78,9.38,2.35c1.56,1.56,2.35,4.69,2.35,9.38v55.19c0,0.29-0.12,0.54-0.37,0.7
			l-10.08,6.58c-0.53,0.37-1.28-0.04-1.28-0.7v-31.15c0-0.62-0.66-1.03-1.19-0.74l-10.08,5.02c-0.29,0.12-0.45,0.41-0.45,0.74v19.51
			c0,0.29-0.12,0.54-0.37,0.7l-10.08,6.58c-0.53,0.37-1.28-0.04-1.28-0.7C94.53,163.93,94.53,102.2,94.53,102.2z"/>
		<path class="st3" d="M141.77,95.82l11.73-5.35v7.04c1.56-4.69,3.91-7.04,7.04-7.04h4.69c4.69,0,7.82,1.15,9.38,3.5
			s2.35,5.06,2.35,8.19v55.19c0,0.29-0.12,0.54-0.37,0.7l-10.08,6.58c-0.54,0.37-1.28-0.04-1.28-0.7v-60.25
			c0-0.66-0.7-1.03-1.23-0.7l-10.08,6.17c-0.25,0.16-0.41,0.41-0.41,0.7v47.57c0,0.29-0.12,0.54-0.37,0.7l-10.08,6.58
			c-0.54,0.37-1.28-0.04-1.28-0.7C141.77,164.01,141.77,95.82,141.77,95.82z"/>
		<path class="st3" d="M217.37,96.35c0-0.33,0.21-0.62,0.49-0.74L227.95,91c0.54-0.25,1.15,0.16,1.15,0.74v5.76
			c1.56-4.69,3.91-7.04,7.04-7.04h4.69c4.69,0,7.82,1.15,9.38,3.5c1.56,2.35,2.35,5.06,2.35,8.19v55.19c0,0.29-0.12,0.54-0.37,0.7
			l-10.08,6.58c-0.54,0.37-1.28-0.04-1.28-0.7v-60.25c0-0.66-0.7-1.03-1.23-0.7l-10.08,6.17c-0.25,0.16-0.41,0.41-0.41,0.7v47.57
			c0,0.29-0.12,0.54-0.37,0.7l-10.08,6.58c-0.54,0.37-1.28-0.04-1.28-0.7C217.37,164.01,217.37,96.35,217.37,96.35z"/>
		<path class="st3" d="M299.76,153.8c0,4.69-0.78,7.82-2.35,9.38c-1.56,1.56-4.69,2.35-9.38,2.35h-11.73
			c-4.69,0-7.82-0.78-9.38-2.35s-2.35-4.69-2.35-9.34V102.2c0-4.65,0.78-7.78,2.35-9.34c1.6-1.6,4.73-2.39,9.38-2.43l11.77,0.08
			c4.65,0,7.78,0.78,9.34,2.3c1.6,1.52,2.39,4.69,2.39,9.47v4.12c0,0.33-0.16,0.62-0.45,0.74l-10.08,5.02
			c-0.58,0.29-1.19-0.12-1.19-0.74v-9.22h-10.91c-0.45,0-0.82,0.37-0.82,0.82v49.96c0,0.45,0.37,0.82,0.82,0.82h10.08
			c0.45,0,0.82-0.37,0.82-0.82v-15.43c0-0.62-0.66-1.03-1.19-0.74l-4.65,2.35c-0.54,0.29-1.19-0.12-1.19-0.74v-12.22
			c0-0.33,0.16-0.62,0.45-0.74l17.12-8.56c0.54-0.29,1.19,0.12,1.19,0.74v36.17H299.76z"/>
		<path class="st3" d="M345.9,91c0.54-0.25,1.15,0.16,1.15,0.74v62.02c0,4.69-0.78,7.82-2.35,9.38c-1.56,1.56-4.69,2.35-9.38,2.35
			h-11.73c-4.69,0-7.82-0.78-9.38-2.35c-1.56-1.56-2.35-4.69-2.35-9.34V96.27c0-0.33,0.21-0.62,0.49-0.74l10.08-4.49
			c0.54-0.25,1.15,0.16,1.15,0.74v62.06h11.73V96.27c0-0.33,0.21-0.62,0.49-0.74L345.9,91z"/>
		<path class="st3" d="M382.57,96.27c0-0.33,0.21-0.62,0.49-0.74l10.08-4.49c0.53-0.25,1.15,0.16,1.15,0.74v61.98
			c0,4.65-0.78,7.78-2.39,9.38c-1.56,1.56-4.69,2.35-9.34,2.39l-11.73-0.04c-4.65,0-7.78-0.78-9.38-2.3
			c-1.56-1.52-2.35-4.69-2.35-9.47v-4.12c0-0.33,0.16-0.62,0.45-0.74l10.08-5.02c0.54-0.29,1.19,0.12,1.19,0.74v8.4
			c0,0.45,0.37,0.82,0.82,0.82h10.08c0.45,0,0.82-0.37,0.82-0.82v-25.19c0-0.62-0.62-0.99-1.15-0.74l-21.11,9.84
			c-0.53,0.25-1.19-0.12-1.19-0.74V96.31c0-0.33,0.21-0.62,0.49-0.74l10.08-4.49c0.54-0.25,1.15,0.16,1.15,0.74v25.6
			c0,0.58,0.58,0.99,1.11,0.78l10.08-3.99c0.33-0.12,0.53-0.41,0.53-0.78L382.57,96.27L382.57,96.27z"/>
		<path class="st3" d="M406.39,91.33c0-0.45,0.37-0.82,0.82-0.82h28.85c0.45,0,0.82,0.37,0.82,0.82v10.08
			c0,0.45-0.37,0.82-0.82,0.82h-17.12c-0.45,0-0.82,0.37-0.82,0.82v18.89c0,0.62,0.66,1.03,1.19,0.74l16.38-8.15
			c0.53-0.29,1.19,0.12,1.19,0.74v12.18c0,0.33-0.16,0.62-0.45,0.74l-17.86,8.93c-0.29,0.12-0.45,0.41-0.45,0.74v15.14
			c0,0.45,0.37,0.82,0.82,0.82h17.12c0.45,0,0.82,0.37,0.82,0.82l-0.04,10.08c0,0.45-0.37,0.82-0.82,0.82h-28.77
			c-0.45,0-0.82-0.37-0.82-0.82V91.33H406.39z"/>
		<path class="st3" d="M443.88,96.27c0-0.33,0.21-0.62,0.49-0.74l10.08-4.49c0.54-0.25,1.15,0.16,1.15,0.74v5.76
			c1.56-4.69,3.91-7.04,7.04-7.04h4.69c4.69,0,7.82,1.15,9.38,3.5c1.56,2.35,2.35,5.06,2.35,8.19v55.15c0,0.29-0.12,0.54-0.37,0.7
			l-10.08,6.63c-0.54,0.37-1.28-0.04-1.28-0.7v-60.25c0-0.66-0.7-1.03-1.28-0.7l-10.08,6.5c-0.25,0.16-0.37,0.41-0.37,0.7v47.16
			c0,0.29-0.12,0.54-0.37,0.7l-10.08,6.63c-0.53,0.37-1.28-0.04-1.28-0.7L443.88,96.27L443.88,96.27z"/>
	</g>
</g>
</svg>
