<?xml version="1.0" encoding="utf-8"?>
<!-- Generator: Adobe Illustrator 24.2.1, SVG Export Plug-In . SVG Version: 6.00 Build 0)  -->
<svg version="1.1" id="Layer_1" xmlns="http://www.w3.org/2000/svg" xmlns:xlink="http://www.w3.org/1999/xlink" x="0px" y="0px"
	 viewBox="0 0 248.41 132.74" style="enable-background:new 0 0 248.41 132.74;" xml:space="preserve">
<style type="text/css">
	.st0{opacity:0.5;}
	.st1{fill:#9BCB3D;}
	.st2{fill:#F7C7A0;}
	.st3{fill:#1C1D1D;}
</style>
<g>
	<g>
		<g class="st0">
			<path class="st1" d="M114.29,132.48l-18.8-11.98c-0.49-0.31-0.78-0.85-0.78-1.43l-0.02-22.23c0-0.54,0.26-1.06,0.71-1.38l3.8-2.7
				c0.45-0.31,0.71-0.84,0.71-1.4L99.68,40.6l0.26-30.36c0-0.58,0.3-1.12,0.78-1.41l13.55-8.56c1.13-0.71,2.6,0.1,2.6,1.43v129.34
				C116.89,132.37,115.41,133.19,114.29,132.48z"/>
			<path class="st1" d="M80.41,111.19l-13.55-8.63c-0.49-0.31-0.78-0.85-0.78-1.43V31.98c0-0.58,0.3-1.12,0.78-1.43l18.62-11.79
				c1.13-0.71,2.6,0.1,2.6,1.43v19.23c0,0.54-0.26,1.05-0.7,1.36l-3.7,2.72c-0.44,0.31-0.7,0.82-0.7,1.36v64.9
				C83.01,111.1,81.54,111.92,80.41,111.19z"/>
		</g>
		<g class="st0">
			<path class="st2" d="M135.22,0.28L154,12.24c0.49,0.31,0.78,0.85,0.78,1.43l0.02,22.23c0,0.54-0.26,1.06-0.71,1.38l-3.8,2.7
				c-0.45,0.31-0.71,0.84-0.71,1.4l0.24,50.76l-0.26,30.36c0,0.58-0.3,1.12-0.78,1.41l-13.57,8.56c-1.13,0.71-2.6-0.1-2.6-1.43V1.71
				C132.6,0.39,134.08-0.43,135.22,0.28z"/>
			<path class="st2" d="M168,21.43l13.55,8.63c0.49,0.31,0.78,0.85,0.78,1.43v69.16c0,0.58-0.3,1.12-0.78,1.43l-18.64,11.79
				c-1.13,0.71-2.6-0.1-2.6-1.43V93.21c0-0.54,0.26-1.05,0.7-1.36l3.7-2.72c0.44-0.31,0.7-0.82,0.7-1.36v-64.9
				C165.4,21.52,166.87,20.72,168,21.43z"/>
		</g>
	</g>
	<g>
		<path class="st3" d="M0,49.79c0-0.17,0.11-0.32,0.26-0.38l2.77-1.2l2.45-1.05c0.28-0.13,0.6,0.09,0.6,0.38v3.01
			c0.81-2.43,2.03-3.65,3.65-3.65h2.43c2.43,0,4.05,0.6,4.87,1.81c0.81,1.22,1.22,2.62,1.22,4.25v28.62c0,0.15-0.06,0.28-0.19,0.36
			l-5.23,3.41c-0.28,0.19-0.66-0.02-0.66-0.36V53.76c0-0.34-0.36-0.53-0.64-0.36L6.3,56.6c-0.13,0.09-0.21,0.21-0.21,0.36v24.67
			c0,0.15-0.06,0.28-0.19,0.36l-5.23,3.41C0.38,85.58,0,85.36,0,85.02V49.79z"/>
		<path class="st3" d="M30.81,71.11c-0.15,0.06-0.23,0.21-0.23,0.38v10.11c0,0.15-0.06,0.28-0.19,0.36l-5.23,3.41
			c-0.28,0.19-0.66-0.02-0.66-0.36V49.79c0-0.17,0.11-0.32,0.26-0.38l5.23-2.22c0.28-0.13,0.6,0.09,0.6,0.38v15.68
			c0,0.32,0.34,0.53,0.62,0.38l5.23-2.6c0.15-0.06,0.23-0.21,0.23-0.38V49.81c0-0.17,0.11-0.32,0.26-0.38l5.23-2.22
			c0.28-0.13,0.6,0.09,0.6,0.38v34.06c0,0.15-0.06,0.28-0.19,0.36l-5.23,3.41c-0.28,0.19-0.66-0.02-0.66-0.36V68.91
			c0-0.32-0.34-0.53-0.62-0.38L30.81,71.11z"/>
		<path class="st3" d="M55.29,56.6c-0.13,0.09-0.21,0.21-0.21,0.36v6.3c0,0.32,0.34,0.53,0.62,0.38l5.23-2.6
			c0.15-0.06,0.23-0.21,0.23-0.38v-6.87c0-0.34-0.36-0.53-0.64-0.36L55.29,56.6z M49.02,52.99c0-2.43,0.41-4.05,1.22-4.87
			c0.81-0.81,2.43-1.22,4.87-1.22h6.08c2.43,0,4.05,0.41,4.87,1.22c0.81,0.81,1.22,2.43,1.22,4.87v28.62c0,0.15-0.06,0.28-0.19,0.36
			l-5.23,3.41c-0.28,0.19-0.66-0.02-0.66-0.36V68.87c0-0.32-0.34-0.53-0.62-0.38l-5.23,2.6c-0.15,0.06-0.23,0.21-0.23,0.38v10.11
			c0,0.15-0.06,0.28-0.19,0.36l-5.23,3.41c-0.28,0.19-0.66-0.02-0.66-0.36C49.02,85,49.02,52.99,49.02,52.99z"/>
		<path class="st3" d="M73.51,49.68l6.08-2.77v3.65c0.81-2.43,2.03-3.65,3.65-3.65h2.43c2.43,0,4.05,0.6,4.87,1.81
			c0.81,1.22,1.22,2.62,1.22,4.25v28.62c0,0.15-0.06,0.28-0.19,0.36l-5.23,3.41c-0.28,0.19-0.66-0.02-0.66-0.36V53.76
			c0-0.34-0.36-0.53-0.64-0.36l-5.23,3.2c-0.13,0.09-0.21,0.21-0.21,0.36v24.67c0,0.15-0.06,0.28-0.19,0.36l-5.23,3.41
			c-0.28,0.19-0.66-0.02-0.66-0.36C73.51,85.04,73.51,49.68,73.51,49.68z"/>
		<path class="st3" d="M112.71,49.96c0-0.17,0.11-0.32,0.26-0.38l5.23-2.39c0.28-0.13,0.6,0.09,0.6,0.38v2.99
			c0.81-2.43,2.03-3.65,3.65-3.65h2.43c2.43,0,4.05,0.6,4.87,1.81c0.81,1.22,1.22,2.62,1.22,4.25v28.62c0,0.15-0.06,0.28-0.19,0.36
			l-5.23,3.41c-0.28,0.19-0.66-0.02-0.66-0.36V53.76c0-0.34-0.36-0.53-0.64-0.36l-5.23,3.2c-0.13,0.09-0.21,0.21-0.21,0.36v24.67
			c0,0.15-0.06,0.28-0.19,0.36l-5.23,3.41c-0.28,0.19-0.66-0.02-0.66-0.36C112.71,85.04,112.71,49.96,112.71,49.96z"/>
		<path class="st3" d="M155.44,79.75c0,2.43-0.41,4.05-1.22,4.87c-0.81,0.81-2.43,1.22-4.87,1.22h-6.08c-2.43,0-4.05-0.41-4.87-1.22
			c-0.81-0.81-1.22-2.43-1.22-4.84V52.99c0-2.41,0.41-4.03,1.22-4.84c0.83-0.83,2.45-1.24,4.87-1.26l6.1,0.04
			c2.41,0,4.03,0.41,4.84,1.2c0.83,0.79,1.24,2.43,1.24,4.91v2.13c0,0.17-0.09,0.32-0.23,0.38l-5.23,2.6
			c-0.3,0.15-0.62-0.06-0.62-0.38v-4.78h-5.65c-0.23,0-0.43,0.19-0.43,0.43v25.91c0,0.23,0.19,0.43,0.43,0.43h5.23
			c0.23,0,0.43-0.19,0.43-0.43v-8c0-0.32-0.34-0.53-0.62-0.38l-2.41,1.22c-0.28,0.15-0.62-0.06-0.62-0.38v-6.34
			c0-0.17,0.09-0.32,0.23-0.38l8.88-4.44c0.28-0.15,0.62,0.06,0.62,0.38v18.76H155.44z"/>
		<path class="st3" d="M179.36,47.19c0.28-0.13,0.6,0.09,0.6,0.38v32.16c0,2.43-0.41,4.05-1.22,4.87c-0.81,0.81-2.43,1.22-4.87,1.22
			h-6.08c-2.43,0-4.05-0.41-4.87-1.22c-0.81-0.81-1.22-2.43-1.22-4.84V49.92c0-0.17,0.11-0.32,0.26-0.38l5.23-2.33
			c0.28-0.13,0.6,0.09,0.6,0.38v32.18h6.08V49.92c0-0.17,0.11-0.32,0.26-0.38L179.36,47.19z"/>
		<path class="st3" d="M198.37,49.92c0-0.17,0.11-0.32,0.26-0.38l5.23-2.33c0.28-0.13,0.6,0.09,0.6,0.38v32.14
			c0,2.41-0.41,4.03-1.24,4.87c-0.81,0.81-2.43,1.22-4.84,1.24l-6.08-0.02c-2.41,0-4.03-0.41-4.87-1.2
			c-0.81-0.79-1.22-2.43-1.22-4.91v-2.13c0-0.17,0.09-0.32,0.23-0.38l5.23-2.6c0.28-0.15,0.62,0.06,0.62,0.38v4.35
			c0,0.23,0.19,0.43,0.43,0.43h5.23c0.23,0,0.43-0.19,0.43-0.43V66.26c0-0.32-0.32-0.51-0.6-0.38l-10.95,5.1
			c-0.28,0.13-0.62-0.06-0.62-0.38V49.94c0-0.17,0.11-0.32,0.26-0.38l5.23-2.33c0.28-0.13,0.6,0.09,0.6,0.38v13.27
			c0,0.3,0.3,0.51,0.58,0.41l5.23-2.07c0.17-0.06,0.28-0.21,0.28-0.41L198.37,49.92L198.37,49.92z"/>
		<path class="st3" d="M210.73,47.36c0-0.23,0.19-0.43,0.43-0.43h14.96c0.23,0,0.43,0.19,0.43,0.43v5.23c0,0.23-0.19,0.43-0.43,0.43
			h-8.88c-0.23,0-0.43,0.19-0.43,0.43v9.79c0,0.32,0.34,0.53,0.62,0.38l8.49-4.23c0.28-0.15,0.62,0.06,0.62,0.38v6.32
			c0,0.17-0.09,0.32-0.23,0.38l-9.26,4.63c-0.15,0.06-0.23,0.21-0.23,0.38v7.85c0,0.23,0.19,0.43,0.43,0.43h8.88
			c0.23,0,0.43,0.19,0.43,0.43l-0.02,5.23c0,0.23-0.19,0.43-0.43,0.43h-14.92c-0.23,0-0.43-0.19-0.43-0.43V47.36H210.73z"/>
		<path class="st3" d="M230.17,49.92c0-0.17,0.11-0.32,0.26-0.38l5.23-2.33c0.28-0.13,0.6,0.09,0.6,0.38v2.99
			c0.81-2.43,2.03-3.65,3.65-3.65h2.43c2.43,0,4.05,0.6,4.87,1.81c0.81,1.22,1.22,2.62,1.22,4.25v28.59c0,0.15-0.06,0.28-0.19,0.36
			l-5.23,3.44c-0.28,0.19-0.66-0.02-0.66-0.36V53.78c0-0.34-0.36-0.53-0.66-0.36l-5.23,3.37c-0.13,0.09-0.19,0.21-0.19,0.36v24.45
			c0,0.15-0.06,0.28-0.19,0.36l-5.23,3.44c-0.28,0.19-0.66-0.02-0.66-0.36L230.17,49.92L230.17,49.92z"/>
	</g>
</g>
</svg>
