<svg width="171" height="40" viewBox="0 0 171 40" fill="none" xmlns="http://www.w3.org/2000/svg">
<path d="M17.9357 39.5103L12.3899 35.9769C12.2459 35.8852 12.1587 35.7263 12.1585 35.5556L12.1535 28.9942C12.1534 28.8323 12.2317 28.6803 12.3635 28.5864L13.4878 27.7861C13.6203 27.6918 13.6986 27.5389 13.6978 27.3763L13.625 12.392L13.7022 3.42862C13.7036 3.25854 13.7914 3.10088 13.9353 3.0101L17.9375 0.484024C18.2704 0.273883 18.7044 0.513138 18.7044 0.906849L18.7044 39.0886C18.7044 39.4832 18.2686 39.7223 17.9357 39.5103Z" fill="black"/>
<path d="M24.1131 0.489731L29.659 4.0231C29.8029 4.11483 29.8902 4.27368 29.8903 4.4444L29.8953 11.0058C29.8954 11.1677 29.8172 11.3197 29.6853 11.4136L28.561 12.2139C28.4285 12.3082 28.3502 12.4611 28.351 12.6237L28.4238 27.608L28.3467 36.5714C28.3452 36.7415 28.2574 36.8991 28.1136 36.9899L24.1113 39.516C23.7784 39.7261 23.3445 39.4869 23.3445 39.0932L23.3445 0.911419C23.3445 0.51675 23.7803 0.277664 24.1131 0.489731Z" fill="black"/>
<path d="M7.93546 33.2296L3.93546 30.6814C3.79135 30.5896 3.7041 30.4305 3.7041 30.2597L3.7041 9.84535C3.7041 9.67395 3.79189 9.5145 3.93673 9.42284L9.43648 5.94241C9.7694 5.73173 10.2039 5.97093 10.2039 6.36491V12.0426C10.2039 12.2018 10.128 12.3515 9.99964 12.4457L8.90832 13.2465C8.77994 13.3407 8.7041 13.4904 8.7041 13.6496L8.7041 32.8079C8.7041 33.2025 8.26831 33.4416 7.93546 33.2296Z" fill="black"/>
<path d="M33.7921 6.73186L37.7921 9.28006C37.9362 9.37186 38.0234 9.53089 38.0234 9.70176L38.0234 30.1161C38.0234 30.2875 37.9356 30.4469 37.7908 30.5386L32.2911 34.019C31.9581 34.2297 31.5237 33.9905 31.5237 33.5965V27.9188C31.5237 27.7596 31.5995 27.6099 31.7279 27.5157L32.8192 26.715C32.9476 26.6208 33.0234 26.4711 33.0234 26.3118L33.0234 7.15356C33.0234 6.75891 33.4592 6.51982 33.7921 6.73186Z" fill="black"/>
<path d="M53.7271 6.54887C53.7271 6.46875 53.7749 6.39636 53.8486 6.36492L55.1511 5.80917L56.2967 5.3204C56.4286 5.2641 56.5752 5.36091 56.5752 5.50435V6.91046C56.9549 5.77121 57.5246 5.20158 58.2841 5.20158H59.4233C60.5626 5.20158 61.3221 5.48639 61.7018 6.05602C62.0816 6.62565 62.2715 7.29022 62.2715 8.04972V21.46C62.2715 21.5275 62.2374 21.5904 62.1809 21.6274L59.7328 23.2275C59.5997 23.3144 59.4233 23.219 59.4233 23.06V8.40649C59.4233 8.25027 59.2522 8.15436 59.119 8.23587L56.6708 9.73324C56.6114 9.76958 56.5752 9.83421 56.5752 9.90386V21.46C56.5752 21.5275 56.5411 21.5904 56.4846 21.6274L54.0365 23.2275C53.9034 23.3144 53.7271 23.219 53.7271 23.06L53.7271 6.54887Z" fill="black"/>
<path d="M68.1695 16.5389C68.1017 16.5727 68.0589 16.642 68.0589 16.7178V21.46C68.0589 21.5275 68.0248 21.5904 67.9683 21.6274L65.5202 23.2275C65.3872 23.3144 65.2108 23.219 65.2108 23.06V6.54887C65.2108 6.46875 65.2586 6.39636 65.3323 6.36492L67.7804 5.3204C67.9124 5.2641 68.0589 5.36091 68.0589 5.50435V12.8528C68.0589 13.0014 68.2154 13.0981 68.3483 13.0317L70.7965 11.8076C70.8642 11.7737 70.907 11.7045 70.907 11.6287V6.54887C70.907 6.46875 70.9549 6.39636 71.0286 6.36492L73.4767 5.3204C73.6086 5.2641 73.7552 5.36091 73.7552 5.50435V21.46C73.7552 21.5275 73.7211 21.5904 73.6646 21.6274L71.2165 23.2275C71.0834 23.3144 70.907 23.219 70.907 23.06V15.4937C70.907 15.345 70.7506 15.2483 70.6176 15.3148L68.1695 16.5389Z" fill="black"/>
<path d="M79.6383 9.73324C79.5788 9.76958 79.5426 9.83421 79.5426 9.90386V12.8528C79.5426 13.0014 79.6991 13.0981 79.8321 13.0317L82.2802 11.8076C82.348 11.7737 82.3908 11.7045 82.3908 11.6287V8.40649C82.3908 8.25027 82.2197 8.15436 82.0864 8.23587L79.6383 9.73324ZM76.6945 8.04972C76.6945 6.91046 76.8843 6.15096 77.2641 5.77121C77.6438 5.39145 78.4034 5.20158 79.5426 5.20158H82.3908C83.53 5.20158 84.2895 5.39145 84.6693 5.77121C85.049 6.15096 85.2389 6.91046 85.2389 8.04972V21.46C85.2389 21.5275 85.2048 21.5904 85.1483 21.6274L82.7002 23.2275C82.5671 23.3144 82.3908 23.219 82.3908 23.06V15.4937C82.3908 15.345 82.2343 15.2483 82.1013 15.3148L79.6532 16.5389C79.5854 16.5727 79.5426 16.642 79.5426 16.7178V21.46C79.5426 21.5275 79.5085 21.5904 79.452 21.6274L77.0039 23.2275C76.8709 23.3144 76.6945 23.219 76.6945 23.06V8.04972Z" fill="black"/>
<path d="M88.1782 6.50087L91.0263 5.20158V6.91046C91.4061 5.77121 91.9757 5.20158 92.7352 5.20158H93.8745C95.0137 5.20158 95.7732 5.48639 96.153 6.05602C96.5327 6.62565 96.7226 7.29022 96.7226 8.04972V21.46C96.7226 21.5275 96.6885 21.5904 96.632 21.6274L94.1839 23.2275C94.0509 23.3144 93.8745 23.219 93.8745 23.06V8.40649C93.8745 8.25027 93.7034 8.15436 93.5701 8.23587L91.122 9.73324C91.0626 9.76958 91.0263 9.83421 91.0263 9.90386V21.46C91.0263 21.5275 90.9923 21.5904 90.9357 21.6274L88.4876 23.2275C88.3546 23.3144 88.1782 23.219 88.1782 23.06V6.50087Z" fill="black"/>
<path d="M106.543 6.62946C106.543 6.55113 106.589 6.48001 106.66 6.4475L109.108 5.33068C109.241 5.27026 109.391 5.36707 109.391 5.51264V6.91046C109.771 5.77121 110.341 5.20158 111.1 5.20158H112.239C113.379 5.20158 114.138 5.48639 114.518 6.05602C114.898 6.62565 115.087 7.29022 115.087 8.04972V21.46C115.087 21.5275 115.053 21.5904 114.997 21.6274L112.549 23.2275C112.416 23.3144 112.239 23.219 112.239 23.06V8.40649C112.239 8.25027 112.068 8.15436 111.935 8.23587L109.487 9.73324C109.427 9.76958 109.391 9.83421 109.391 9.90386V21.46C109.391 21.5275 109.357 21.5904 109.301 21.6274L106.852 23.2275C106.719 23.3144 106.543 23.219 106.543 23.06V6.62946Z" fill="black"/>
<path d="M126.571 20.5815C126.571 21.7208 126.381 22.4803 126.002 22.8601C125.622 23.2398 124.862 23.4297 123.723 23.4297H120.875C119.736 23.4297 118.976 23.2398 118.596 22.8601C118.217 22.4803 118.027 21.7246 118.027 20.5929V8.04972C118.027 6.91806 118.217 6.16235 118.596 5.7826C118.984 5.39525 119.743 5.19778 120.875 5.19019L123.723 5.20158C124.855 5.20158 125.61 5.38766 125.99 5.75981C126.377 6.13197 126.571 6.89907 126.571 8.06111V9.06537C126.571 9.14112 126.528 9.21038 126.461 9.24426L124.012 10.4683C123.879 10.5348 123.723 10.4381 123.723 10.2894V8.04972H121.075C120.964 8.04972 120.875 8.13926 120.875 8.24972V20.3929C120.875 20.5034 120.964 20.5929 121.075 20.5929H123.523C123.633 20.5929 123.723 20.5034 123.723 20.3929V16.6329C123.723 16.4843 123.567 16.3876 123.434 16.4541L122.304 17.0191C122.171 17.0855 122.014 16.9888 122.014 16.8402V13.8696C122.014 13.7939 122.057 13.7246 122.125 13.6907L126.282 11.6122C126.415 11.5457 126.571 11.6424 126.571 11.7911V20.5815Z" fill="black"/>
<path d="M137.773 5.32722C137.906 5.26818 138.055 5.36499 138.055 5.50986V20.5815C138.055 21.7208 137.865 22.4803 137.485 22.8601C137.105 23.2398 136.346 23.4297 135.207 23.4297H132.359C131.219 23.4297 130.46 23.2398 130.08 22.8601C129.7 22.4803 129.51 21.7246 129.51 20.5929V6.60249C129.51 6.52356 129.557 6.45202 129.629 6.41985L132.077 5.32722C132.209 5.26818 132.359 5.36499 132.359 5.50986V20.5929H135.207V6.60249C135.207 6.52356 135.253 6.45202 135.325 6.41985L137.773 5.32722Z" fill="black"/>
<path d="M146.69 6.60249C146.69 6.52356 146.737 6.45202 146.809 6.41985L149.257 5.32722C149.389 5.26818 149.539 5.36499 149.539 5.50986V20.5702C149.539 21.7018 149.345 22.4613 148.958 22.8487C148.578 23.2284 147.822 23.4221 146.69 23.4297L143.842 23.4183C142.711 23.4183 141.951 23.2322 141.564 22.8601C141.184 22.4879 140.994 21.7208 140.994 20.5588V19.5545C140.994 19.4787 141.037 19.4095 141.105 19.3756L143.553 18.1515C143.686 18.0851 143.842 18.1818 143.842 18.3304V20.3702C143.842 20.4806 143.932 20.5702 144.042 20.5702H146.49C146.601 20.5702 146.69 20.4806 146.69 20.3702V14.2535C146.69 14.1073 146.539 14.0105 146.406 14.0722L141.279 16.4616C141.146 16.5234 140.994 16.4266 140.994 16.2803V6.60249C140.994 6.52356 141.041 6.45202 141.113 6.41985L143.561 5.32722C143.693 5.26818 143.842 5.36499 143.842 5.50986V11.7314C143.842 11.8726 143.985 11.9694 144.116 11.9174L146.564 10.9479C146.64 10.9177 146.69 10.844 146.69 10.762V6.60249Z" fill="black"/>
<path d="M152.478 5.40158C152.478 5.29112 152.567 5.20158 152.678 5.20158H159.683C159.793 5.20158 159.883 5.29112 159.883 5.40158V7.84972C159.883 7.96018 159.793 8.04972 159.683 8.04972H155.526C155.416 8.04972 155.326 8.13926 155.326 8.24972V12.8421C155.326 12.9906 155.482 13.0873 155.615 13.0212L159.594 11.0417C159.727 10.9755 159.883 11.0722 159.883 11.2207V14.1806C159.883 14.2564 159.84 14.3256 159.772 14.3595L155.437 16.5275C155.369 16.5614 155.326 16.6306 155.326 16.7064V20.3815C155.326 20.492 155.416 20.5815 155.526 20.5815H159.682C159.793 20.5815 159.883 20.6716 159.882 20.7823L159.872 23.2305C159.872 23.3406 159.783 23.4297 159.672 23.4297H152.678C152.567 23.4297 152.478 23.3401 152.478 23.2297V5.40158Z" fill="black"/>
<path d="M161.592 6.60249C161.592 6.52356 161.638 6.45202 161.71 6.41985L164.159 5.32722C164.291 5.26818 164.44 5.36499 164.44 5.50986V6.91046C164.82 5.77121 165.389 5.20158 166.149 5.20158H167.288C168.427 5.20158 169.187 5.48639 169.567 6.05602C169.946 6.62565 170.136 7.29022 170.136 8.04972V21.4537C170.136 21.5211 170.102 21.584 170.046 21.6209L167.598 23.2266C167.465 23.3138 167.288 23.2184 167.288 23.0593V8.41637C167.288 8.25807 167.113 8.16251 166.98 8.24821L164.532 9.82453C164.475 9.86134 164.44 9.92469 164.44 9.99269V21.4537C164.44 21.5211 164.406 21.584 164.35 21.6209L161.902 23.2266C161.769 23.3138 161.592 23.2184 161.592 23.0593V6.60249Z" fill="black"/>
<path d="M54.627 36.6898V30.1298H55.627L56.887 33.6298C56.967 33.8564 57.0436 34.0864 57.117 34.3198C57.197 34.5464 57.277 34.7731 57.357 34.9998H57.397C57.477 34.7731 57.5503 34.5464 57.617 34.3198C57.6903 34.0864 57.767 33.8564 57.847 33.6298L59.087 30.1298H60.097V36.6898H59.317V33.0798C59.317 32.7864 59.3303 32.4631 59.357 32.1098C59.3836 31.7498 59.407 31.4264 59.427 31.1398H59.387L58.867 32.6298L57.627 36.0298H57.077L55.837 32.6298L55.317 31.1398H55.277C55.297 31.4264 55.317 31.7498 55.337 32.1098C55.3636 32.4631 55.377 32.7864 55.377 33.0798V36.6898H54.627Z" fill="black"/>
<path d="M65.4226 33.0198L65.1126 34.0198H67.0826L66.7726 33.0198C66.6526 32.6531 66.5392 32.2898 66.4326 31.9298C66.3259 31.5631 66.2192 31.1898 66.1126 30.8098H66.0726C65.9726 31.1898 65.8692 31.5631 65.7626 31.9298C65.6559 32.2898 65.5426 32.6531 65.4226 33.0198ZM63.4226 36.6898L65.6426 30.1298H66.5826L68.8026 36.6898H67.9126L67.2926 34.6898H64.9026L64.2726 36.6898H63.4226Z" fill="black"/>
<path d="M72.132 36.6898V30.1298H72.962V33.4198H72.992L75.722 30.1298H76.662L74.612 32.6298L76.982 36.6898H76.052L74.092 33.2798L72.962 34.6098V36.6898H72.132Z" fill="black"/>
<path d="M80.323 36.6898V30.1298H84.103V30.8298H81.153V32.8898H83.643V33.5998H81.153V35.9798H84.203V36.6898H80.323Z" fill="black"/>
<path d="M96.8004 36.6898V30.1298H97.6304V36.6898H96.8004Z" fill="black"/>
<path d="M103.187 36.6898V30.8298H101.207V30.1298H106.007V30.8298H104.027V36.6898H103.187Z" fill="black"/>
<path d="M118.393 36.6898V30.1298H120.263C120.756 30.1298 121.186 30.1898 121.553 30.3098C121.919 30.4298 122.206 30.6331 122.413 30.9198C122.619 31.1998 122.723 31.5798 122.723 32.0598C122.723 32.7464 122.499 33.2564 122.053 33.5898C121.606 33.9231 121.023 34.0898 120.303 34.0898H119.223V36.6898H118.393ZM119.223 33.4098H120.203C120.776 33.4098 121.199 33.3031 121.473 33.0898C121.753 32.8698 121.893 32.5264 121.893 32.0598C121.893 31.5864 121.746 31.2598 121.453 31.0798C121.166 30.8931 120.736 30.7998 120.163 30.7998H119.223V33.4098Z" fill="black"/>
<path d="M126.457 36.6898V30.1298H130.237V30.8298H127.287V32.8898H129.777V33.5998H127.287V35.9798H130.337V36.6898H126.457Z" fill="black"/>
<path d="M134.13 36.6898V30.1298H136.18C136.627 30.1298 137.023 30.1898 137.37 30.3098C137.717 30.4231 137.987 30.6164 138.18 30.8898C138.38 31.1564 138.48 31.5164 138.48 31.9698C138.48 32.4764 138.347 32.8864 138.08 33.1998C137.813 33.5064 137.453 33.7164 137 33.8298L138.67 36.6898H137.73L136.15 33.9198H134.96V36.6898H134.13ZM134.96 33.2398H136.06C136.573 33.2398 136.967 33.1364 137.24 32.9298C137.513 32.7164 137.65 32.3964 137.65 31.9698C137.65 31.5364 137.513 31.2331 137.24 31.0598C136.967 30.8864 136.573 30.7998 136.06 30.7998H134.96V33.2398Z" fill="black"/>
<path d="M142.223 36.6898V30.1298H146.003V30.8298H143.053V33.0498H145.553V33.7498H143.053V36.6898H142.223Z" fill="black"/>
<path d="M149.565 36.6898V30.1298H153.345V30.8298H150.395V32.8898H152.885V33.5998H150.395V35.9798H153.445V36.6898H149.565Z" fill="black"/>
<path d="M159.718 36.8098C159.172 36.8098 158.682 36.6764 158.248 36.4098C157.822 36.1364 157.482 35.7464 157.228 35.2398C156.982 34.7331 156.858 34.1231 156.858 33.4098C156.858 32.7031 156.985 32.0964 157.238 31.5898C157.492 31.0831 157.838 30.6931 158.278 30.4198C158.718 30.1464 159.215 30.0098 159.768 30.0098C160.168 30.0098 160.522 30.0931 160.828 30.2598C161.135 30.4198 161.382 30.6064 161.568 30.8198L161.118 31.3598C160.945 31.1731 160.748 31.0231 160.528 30.9098C160.308 30.7964 160.058 30.7398 159.778 30.7398C159.365 30.7398 159.002 30.8498 158.688 31.0698C158.382 31.2831 158.142 31.5864 157.968 31.9798C157.802 32.3731 157.718 32.8431 157.718 33.3898C157.718 33.9364 157.802 34.4131 157.968 34.8198C158.135 35.2198 158.368 35.5298 158.668 35.7498C158.975 35.9698 159.335 36.0798 159.748 36.0798C160.062 36.0798 160.342 36.0131 160.588 35.8798C160.835 35.7464 161.062 35.5664 161.268 35.3398L161.728 35.8598C161.468 36.1598 161.175 36.3931 160.848 36.5598C160.522 36.7264 160.145 36.8098 159.718 36.8098Z" fill="black"/>
<path d="M166.535 36.6898V30.8298H164.555V30.1298H169.355V30.8298H167.375V36.6898H166.535Z" fill="black"/>
</svg>
